<svg xmlns="http://www.w3.org/2000/svg" width="44" height="40" viewBox="0 0 44 40" fill="none">
<g clip-path="url(#clip0_31_554)">
<path d="M43.9409 39.4565H42.5686V38.0652H43.9409V39.4565Z" fill="#ECD979"/>
<path d="M42.5686 39.4565H41.1963V38.0652H42.5686V39.4565Z" fill="#ECD979"/>
<path d="M37.0794 39.4565H35.707V38.0652H37.0794V39.4565Z" fill="#ECD979"/>
<path d="M35.707 39.4565H34.3347V38.0652H35.707V39.4565Z" fill="#ECD979"/>
<path d="M34.3347 39.4565H32.9624V38.0652H34.3347V39.4565Z" fill="#ECD979"/>
<path d="M26.1008 39.4565H24.7285V38.0652H26.1008V39.4565Z" fill="#ECD979"/>
<path d="M17.8672 39.4565H16.4949V38.0652H17.8672V39.4565Z" fill="#ECD979"/>
<path d="M9.63331 39.4565H8.26099V38.0652H9.63331V39.4565Z" fill="#ECD979"/>
<path d="M8.26099 39.4565H6.88867V38.0652H8.26099V39.4565Z" fill="#ECD979"/>
<path d="M6.88868 39.4565H5.51636V38.0652H6.88868V39.4565Z" fill="#ECD979"/>
<path d="M1.39942 39.4565H0.0270996V38.0652H1.39942V39.4565Z" fill="#ECD979"/>
<path d="M43.9409 38.0652H42.5686V36.6739H43.9409V38.0652Z" fill="#ECD979"/>
<path d="M38.4517 38.0652H37.0793V36.6739H38.4517V38.0652Z" fill="#ECD979"/>
<path d="M37.0794 38.0652H35.707V36.6739H37.0794V38.0652Z" fill="#ECD979"/>
<path d="M35.707 38.0652H34.3347V36.6739H35.707V38.0652Z" fill="#ECD979"/>
<path d="M26.1008 38.0652H24.7285V36.6739H26.1008V38.0652Z" fill="#ECD979"/>
<path d="M24.7285 38.0652H23.3562V36.6739H24.7285V38.0652Z" fill="#ECD979"/>
<path d="M19.2395 38.0652H17.8672V36.6739H19.2395V38.0652Z" fill="#ECD979"/>
<path d="M17.8672 38.0652H16.4949V36.6739H17.8672V38.0652Z" fill="#ECD979"/>
<path d="M8.26099 38.0652H6.88867V36.6739H8.26099V38.0652Z" fill="#ECD979"/>
<path d="M6.88868 38.0652H5.51636V36.6739H6.88868V38.0652Z" fill="#ECD979"/>
<path d="M5.51636 38.0652H4.14404V36.6739H5.51636V38.0652Z" fill="#ECD979"/>
<path d="M39.824 36.6739H38.4517V35.2826H39.824V36.6739Z" fill="#ECD979"/>
<path d="M38.4517 36.6739H37.0793V35.2826H38.4517V36.6739Z" fill="#ECD979"/>
<path d="M37.0794 36.6739H35.707V35.2826H37.0794V36.6739Z" fill="#ECD979"/>
<path d="M26.1008 36.6739H24.7285V35.2826H26.1008V36.6739Z" fill="#ECD979"/>
<path d="M24.7285 36.6739H23.3562V35.2826H24.7285V36.6739Z" fill="#ECD979"/>
<path d="M23.3562 36.6739H21.9839V35.2826H23.3562V36.6739Z" fill="#ECD979"/>
<path d="M20.6118 36.6739H19.2395V35.2826H20.6118V36.6739Z" fill="#ECD979"/>
<path d="M19.2395 36.6739H17.8672V35.2826H19.2395V36.6739Z" fill="#ECD979"/>
<path d="M17.8672 36.6739H16.4949V35.2826H17.8672V36.6739Z" fill="#ECD979"/>
<path d="M6.88868 36.6739H5.51636V35.2826H6.88868V36.6739Z" fill="#ECD979"/>
<path d="M5.51636 36.6739H4.14404V35.2826H5.51636V36.6739Z" fill="#ECD979"/>
<path d="M4.14405 36.6739H2.77173V35.2826H4.14405V36.6739Z" fill="#ECD979"/>
<path d="M41.1963 35.2826H39.824V33.8913H41.1963V35.2826Z" fill="#ECD979"/>
<path d="M39.824 35.2826H38.4517V33.8913H39.824V35.2826Z" fill="#ECD979"/>
<path d="M38.4517 35.2826H37.0793V33.8913H38.4517V35.2826Z" fill="#ECD979"/>
<path d="M31.5901 35.2826H30.2178V33.8913H31.5901V35.2826Z" fill="#ECD979"/>
<path d="M30.2178 35.2826H28.8455V33.8913H30.2178V35.2826Z" fill="#ECD979"/>
<path d="M28.8455 35.2826H27.4731V33.8913H28.8455V35.2826Z" fill="#ECD979"/>
<path d="M24.7285 35.2826H23.3562V33.8913H24.7285V35.2826Z" fill="#ECD979"/>
<path d="M23.3562 35.2826H21.9839V33.8913H23.3562V35.2826Z" fill="#ECD979"/>
<path d="M20.6118 35.2826H19.2395V33.8913H20.6118V35.2826Z" fill="#ECD979"/>
<path d="M19.2395 35.2826H17.8672V33.8913H19.2395V35.2826Z" fill="#ECD979"/>
<path d="M15.1226 35.2826H13.7502V33.8913H15.1226V35.2826Z" fill="#ECD979"/>
<path d="M13.7502 35.2826H12.3779V33.8913H13.7502V35.2826Z" fill="#ECD979"/>
<path d="M12.3779 35.2826H11.0056V33.8913H12.3779V35.2826Z" fill="#ECD979"/>
<path d="M5.51636 35.2826H4.14404V33.8913H5.51636V35.2826Z" fill="#ECD979"/>
<path d="M4.14405 35.2826H2.77173V33.8913H4.14405V35.2826Z" fill="#ECD979"/>
<path d="M2.77173 35.2826H1.39941V33.8913H2.77173V35.2826Z" fill="#ECD979"/>
<path d="M42.5686 33.8913H41.1963V32.5H42.5686V33.8913Z" fill="#ECD979"/>
<path d="M41.1963 33.8913H39.824V32.5H41.1963V33.8913Z" fill="#ECD979"/>
<path d="M39.824 33.8913H38.4517V32.5H39.824V33.8913Z" fill="#ECD979"/>
<path d="M30.2178 33.8913H28.8455V32.5H30.2178V33.8913Z" fill="#ECD979"/>
<path d="M28.8455 33.8913H27.4731V32.5H28.8455V33.8913Z" fill="#ECD979"/>
<path d="M27.4731 33.8913H26.1008V32.5H27.4731V33.8913Z" fill="#ECD979"/>
<path d="M23.3562 33.8913H21.9839V32.5H23.3562V33.8913Z" fill="#ECD979"/>
<path d="M20.6118 33.8913H19.2395V32.5H20.6118V33.8913Z" fill="#ECD979"/>
<path d="M16.4949 33.8913H15.1226V32.5H16.4949V33.8913Z" fill="#ECD979"/>
<path d="M15.1226 33.8913H13.7502V32.5H15.1226V33.8913Z" fill="#ECD979"/>
<path d="M13.7502 33.8913H12.3779V32.5H13.7502V33.8913Z" fill="#ECD979"/>
<path d="M4.14405 33.8913H2.77173V32.5H4.14405V33.8913Z" fill="#ECD979"/>
<path d="M2.77173 33.8913H1.39941V32.5H2.77173V33.8913Z" fill="#ECD979"/>
<path d="M1.39942 33.8913H0.0270996V32.5H1.39942V33.8913Z" fill="#ECD979"/>
<path d="M42.5686 32.5H41.1963V31.1087H42.5686V32.5Z" fill="#ECD979"/>
<path d="M41.1963 32.5H39.824V31.1087H41.1963V32.5Z" fill="#ECD979"/>
<path d="M28.8455 32.5H27.4731V31.1087H28.8455V32.5Z" fill="#ECD979"/>
<path d="M27.4731 32.5H26.1008V31.1087H27.4731V32.5Z" fill="#ECD979"/>
<path d="M26.1008 32.5H24.7285V31.1087H26.1008V32.5Z" fill="#ECD979"/>
<path d="M17.8672 32.5H16.4949V31.1087H17.8672V32.5Z" fill="#ECD979"/>
<path d="M16.4949 32.5H15.1226V31.1087H16.4949V32.5Z" fill="#ECD979"/>
<path d="M15.1226 32.5H13.7502V31.1087H15.1226V32.5Z" fill="#ECD979"/>
<path d="M2.77173 32.5H1.39941V31.1087H2.77173V32.5Z" fill="#ECD979"/>
<path d="M1.39942 32.5H0.0270996V31.1087H1.39942V32.5Z" fill="#ECD979"/>
<path d="M42.5686 31.1087H41.1963V29.7174H42.5686V31.1087Z" fill="#ECD979"/>
<path d="M35.707 31.1087H34.3347V29.7174H35.707V31.1087Z" fill="#ECD979"/>
<path d="M23.3562 31.1087H21.9839V29.7174H23.3562V31.1087Z" fill="#ECD979"/>
<path d="M20.6118 31.1087H19.2395V29.7174H20.6118V31.1087Z" fill="#ECD979"/>
<path d="M8.26099 31.1087H6.88867V29.7174H8.26099V31.1087Z" fill="#ECD979"/>
<path d="M1.39942 31.1087H0.0270996V29.7174H1.39942V31.1087Z" fill="#ECD979"/>
<path d="M35.707 29.7174H34.3347V28.3261H35.707V29.7174Z" fill="#ECD979"/>
<path d="M34.3347 29.7174H32.9624V28.3261H34.3347V29.7174Z" fill="#ECD979"/>
<path d="M24.7285 29.7174H23.3562V28.3261H24.7285V29.7174Z" fill="#ECD979"/>
<path d="M23.3562 29.7174H21.9839V28.3261H23.3562V29.7174Z" fill="#ECD979"/>
<path d="M20.6118 29.7174H19.2395V28.3261H20.6118V29.7174Z" fill="#ECD979"/>
<path d="M19.2395 29.7174H17.8672V28.3261H19.2395V29.7174Z" fill="#ECD979"/>
<path d="M9.63331 29.7174H8.26099V28.3261H9.63331V29.7174Z" fill="#ECD979"/>
<path d="M8.26099 29.7174H6.88867V28.3261H8.26099V29.7174Z" fill="#ECD979"/>
<path d="M35.707 28.3261H34.3347V26.9348H35.707V28.3261Z" fill="#ECD979"/>
<path d="M34.3347 28.3261H32.9624V26.9348H34.3347V28.3261Z" fill="#ECD979"/>
<path d="M32.9624 28.3261H31.5901V26.9348H32.9624V28.3261Z" fill="#ECD979"/>
<path d="M26.1008 28.3261H24.7285V26.9348H26.1008V28.3261Z" fill="#ECD979"/>
<path d="M24.7285 28.3261H23.3562V26.9348H24.7285V28.3261Z" fill="#ECD979"/>
<path d="M19.2395 28.3261H17.8672V26.9348H19.2395V28.3261Z" fill="#ECD979"/>
<path d="M17.8672 28.3261H16.4949V26.9348H17.8672V28.3261Z" fill="#ECD979"/>
<path d="M11.0056 28.3261H9.6333V26.9348H11.0056V28.3261Z" fill="#ECD979"/>
<path d="M9.63331 28.3261H8.26099V26.9348H9.63331V28.3261Z" fill="#ECD979"/>
<path d="M8.26099 28.3261H6.88867V26.9348H8.26099V28.3261Z" fill="#ECD979"/>
<path d="M34.3347 26.9348H32.9624V25.5435H34.3347V26.9348Z" fill="#ECD979"/>
<path d="M32.9624 26.9348H31.5901V25.5435H32.9624V26.9348Z" fill="#ECD979"/>
<path d="M27.4731 26.9348H26.1008V25.5435H27.4731V26.9348Z" fill="#ECD979"/>
<path d="M26.1008 26.9348H24.7285V25.5435H26.1008V26.9348Z" fill="#ECD979"/>
<path d="M17.8672 26.9348H16.4949V25.5435H17.8672V26.9348Z" fill="#ECD979"/>
<path d="M16.4949 26.9348H15.1226V25.5435H16.4949V26.9348Z" fill="#ECD979"/>
<path d="M11.0056 26.9348H9.6333V25.5435H11.0056V26.9348Z" fill="#ECD979"/>
<path d="M9.63331 26.9348H8.26099V25.5435H9.63331V26.9348Z" fill="#ECD979"/>
<path d="M39.824 25.5435H38.4517V24.1522H39.824V25.5435Z" fill="#ECD979"/>
<path d="M38.4517 25.5435H37.0793V24.1522H38.4517V25.5435Z" fill="#ECD979"/>
<path d="M37.0794 25.5435H35.707V24.1522H37.0794V25.5435Z" fill="#ECD979"/>
<path d="M32.9624 25.5435H31.5901V24.1522H32.9624V25.5435Z" fill="#ECD979"/>
<path d="M28.8455 25.5435H27.4731V24.1522H28.8455V25.5435Z" fill="#ECD979"/>
<path d="M27.4731 25.5435H26.1008V24.1522H27.4731V25.5435Z" fill="#ECD979"/>
<path d="M16.4949 25.5435H15.1226V24.1522H16.4949V25.5435Z" fill="#ECD979"/>
<path d="M15.1226 25.5435H13.7502V24.1522H15.1226V25.5435Z" fill="#ECD979"/>
<path d="M11.0056 25.5435H9.6333V24.1522H11.0056V25.5435Z" fill="#ECD979"/>
<path d="M6.88868 25.5435H5.51636V24.1522H6.88868V25.5435Z" fill="#ECD979"/>
<path d="M5.51636 25.5435H4.14404V24.1522H5.51636V25.5435Z" fill="#ECD979"/>
<path d="M4.14405 25.5435H2.77173V24.1522H4.14405V25.5435Z" fill="#ECD979"/>
<path d="M43.9409 24.1522H42.5686V22.7609H43.9409V24.1522Z" fill="#ECD979"/>
<path d="M38.4517 24.1522H37.0793V22.7609H38.4517V24.1522Z" fill="#ECD979"/>
<path d="M37.0794 24.1522H35.707V22.7609H37.0794V24.1522Z" fill="#ECD979"/>
<path d="M35.707 24.1522H34.3347V22.7609H35.707V24.1522Z" fill="#ECD979"/>
<path d="M30.2178 24.1522H28.8455V22.7609H30.2178V24.1522Z" fill="#ECD979"/>
<path d="M28.8455 24.1522H27.4731V22.7609H28.8455V24.1522Z" fill="#ECD979"/>
<path d="M15.1226 24.1522H13.7502V22.7609H15.1226V24.1522Z" fill="#ECD979"/>
<path d="M13.7502 24.1522H12.3779V22.7609H13.7502V24.1522Z" fill="#ECD979"/>
<path d="M8.26099 24.1522H6.88867V22.7609H8.26099V24.1522Z" fill="#ECD979"/>
<path d="M6.88868 24.1522H5.51636V22.7609H6.88868V24.1522Z" fill="#ECD979"/>
<path d="M5.51636 24.1522H4.14404V22.7609H5.51636V24.1522Z" fill="#ECD979"/>
<path d="M43.9409 22.7609H42.5686V21.3696H43.9409V22.7609Z" fill="#ECD979"/>
<path d="M42.5686 22.7609H41.1963V21.3696H42.5686V22.7609Z" fill="#ECD979"/>
<path d="M37.0794 22.7609H35.707V21.3696H37.0794V22.7609Z" fill="#ECD979"/>
<path d="M35.707 22.7609H34.3347V21.3696H35.707V22.7609Z" fill="#ECD979"/>
<path d="M34.3347 22.7609H32.9624V21.3696H34.3347V22.7609Z" fill="#ECD979"/>
<path d="M31.5901 22.7609H30.2178V21.3696H31.5901V22.7609Z" fill="#ECD979"/>
<path d="M30.2178 22.7609H28.8455V21.3696H30.2178V22.7609Z" fill="#ECD979"/>
<path d="M21.9841 22.7609H20.6118V21.3696H21.9841V22.7609Z" fill="#ECD979"/>
<path d="M13.7502 22.7609H12.3779V21.3696H13.7502V22.7609Z" fill="#ECD979"/>
<path d="M12.3779 22.7609H11.0056V21.3696H12.3779V22.7609Z" fill="#ECD979"/>
<path d="M9.63331 22.7609H8.26099V21.3696H9.63331V22.7609Z" fill="#ECD979"/>
<path d="M8.26099 22.7609H6.88867V21.3696H8.26099V22.7609Z" fill="#ECD979"/>
<path d="M6.88868 22.7609H5.51636V21.3696H6.88868V22.7609Z" fill="#ECD979"/>
<path d="M1.37232 21.3696H0V19.9783H1.37232V21.3696Z" fill="#ECD979"/>
<path d="M2.77173 21.3696H1.39941V19.9783H2.77173V21.3696Z" fill="#ECD979"/>
<path d="M1.37232 22.7609H0V21.3696H1.37232V22.7609Z" fill="#ECD979"/>
<path d="M1.37232 19.9783H0V18.587H1.37232V19.9783Z" fill="#ECD979"/>
<path d="M43.9409 21.3696H42.5686V19.9783H43.9409V21.3696Z" fill="#ECD979"/>
<path d="M42.5686 21.3696H41.1963V19.9783H42.5686V21.3696Z" fill="#ECD979"/>
<path d="M41.1963 21.3696H39.824V19.9783H41.1963V21.3696Z" fill="#ECD979"/>
<path d="M23.3562 21.3696H21.9839V19.9783H23.3562V21.3696Z" fill="#ECD979"/>
<path d="M21.9841 21.3696H20.6118V19.9783H21.9841V21.3696Z" fill="#ECD979"/>
<path d="M20.6118 21.3696H19.2395V19.9783H20.6118V21.3696Z" fill="#ECD979"/>
<path d="M43.9409 19.9783H42.5686V18.587H43.9409V19.9783Z" fill="#ECD979"/>
<path d="M42.5686 19.9783H41.1963V18.587H42.5686V19.9783Z" fill="#ECD979"/>
<path d="M37.0794 19.9783H35.707V18.587H37.0794V19.9783Z" fill="#ECD979"/>
<path d="M35.707 19.9783H34.3347V18.587H35.707V19.9783Z" fill="#ECD979"/>
<path d="M34.3347 19.9783H32.9624V18.587H34.3347V19.9783Z" fill="#ECD979"/>
<path d="M31.5901 19.9783H30.2178V18.587H31.5901V19.9783Z" fill="#ECD979"/>
<path d="M30.2178 19.9783H28.8455V18.587H30.2178V19.9783Z" fill="#ECD979"/>
<path d="M21.9841 19.9783H20.6118V18.587H21.9841V19.9783Z" fill="#ECD979"/>
<path d="M13.7502 19.9783H12.3779V18.587H13.7502V19.9783Z" fill="#ECD979"/>
<path d="M12.3779 19.9783H11.0056V18.587H12.3779V19.9783Z" fill="#ECD979"/>
<path d="M9.63331 19.9783H8.26099V18.587H9.63331V19.9783Z" fill="#ECD979"/>
<path d="M8.26099 19.9783H6.88867V18.587H8.26099V19.9783Z" fill="#ECD979"/>
<path d="M6.88868 19.9783H5.51636V18.587H6.88868V19.9783Z" fill="#ECD979"/>
<path d="M43.9409 18.5869H42.5686V17.1956H43.9409V18.5869Z" fill="#ECD979"/>
<path d="M38.4517 18.5869H37.0793V17.1956H38.4517V18.5869Z" fill="#ECD979"/>
<path d="M37.0794 18.5869H35.707V17.1956H37.0794V18.5869Z" fill="#ECD979"/>
<path d="M35.707 18.5869H34.3347V17.1956H35.707V18.5869Z" fill="#ECD979"/>
<path d="M30.2178 18.5869H28.8455V17.1956H30.2178V18.5869Z" fill="#ECD979"/>
<path d="M28.8455 18.5869H27.4731V17.1956H28.8455V18.5869Z" fill="#ECD979"/>
<path d="M15.1226 18.5869H13.7502V17.1956H15.1226V18.5869Z" fill="#ECD979"/>
<path d="M13.7502 18.5869H12.3779V17.1956H13.7502V18.5869Z" fill="#ECD979"/>
<path d="M8.26099 18.5869H6.88867V17.1956H8.26099V18.5869Z" fill="#ECD979"/>
<path d="M6.88868 18.5869H5.51636V17.1956H6.88868V18.5869Z" fill="#ECD979"/>
<path d="M5.51636 18.5869H4.14404V17.1956H5.51636V18.5869Z" fill="#ECD979"/>
<path d="M39.824 17.1956H38.4517V15.8043H39.824V17.1956Z" fill="#ECD979"/>
<path d="M38.4517 17.1956H37.0793V15.8043H38.4517V17.1956Z" fill="#ECD979"/>
<path d="M37.0794 17.1956H35.707V15.8043H37.0794V17.1956Z" fill="#ECD979"/>
<path d="M32.9624 17.1956H31.5901V15.8043H32.9624V17.1956Z" fill="#ECD979"/>
<path d="M28.8455 17.1956H27.4731V15.8043H28.8455V17.1956Z" fill="#ECD979"/>
<path d="M27.4731 17.1956H26.1008V15.8043H27.4731V17.1956Z" fill="#ECD979"/>
<path d="M16.4949 17.1956H15.1226V15.8043H16.4949V17.1956Z" fill="#ECD979"/>
<path d="M15.1226 17.1956H13.7502V15.8043H15.1226V17.1956Z" fill="#ECD979"/>
<path d="M11.0056 17.1956H9.6333V15.8043H11.0056V17.1956Z" fill="#ECD979"/>
<path d="M6.88868 17.1956H5.51636V15.8043H6.88868V17.1956Z" fill="#ECD979"/>
<path d="M5.51636 17.1956H4.14404V15.8043H5.51636V17.1956Z" fill="#ECD979"/>
<path d="M4.14405 17.1956H2.77173V15.8043H4.14405V17.1956Z" fill="#ECD979"/>
<path d="M34.3347 15.8044H32.9624V14.413H34.3347V15.8044Z" fill="#ECD979"/>
<path d="M32.9624 15.8044H31.5901V14.413H32.9624V15.8044Z" fill="#ECD979"/>
<path d="M27.4731 15.8044H26.1008V14.413H27.4731V15.8044Z" fill="#ECD979"/>
<path d="M26.1008 15.8044H24.7285V14.413H26.1008V15.8044Z" fill="#ECD979"/>
<path d="M17.8672 15.8044H16.4949V14.413H17.8672V15.8044Z" fill="#ECD979"/>
<path d="M16.4949 15.8044H15.1226V14.413H16.4949V15.8044Z" fill="#ECD979"/>
<path d="M11.0056 15.8044H9.6333V14.413H11.0056V15.8044Z" fill="#ECD979"/>
<path d="M9.63331 15.8044H8.26099V14.413H9.63331V15.8044Z" fill="#ECD979"/>
<path d="M35.707 14.413H34.3347V13.0217H35.707V14.413Z" fill="#ECD979"/>
<path d="M34.3347 14.413H32.9624V13.0217H34.3347V14.413Z" fill="#ECD979"/>
<path d="M32.9624 14.413H31.5901V13.0217H32.9624V14.413Z" fill="#ECD979"/>
<path d="M26.1008 14.413H24.7285V13.0217H26.1008V14.413Z" fill="#ECD979"/>
<path d="M24.7285 14.413H23.3562V13.0217H24.7285V14.413Z" fill="#ECD979"/>
<path d="M19.2395 14.413H17.8672V13.0217H19.2395V14.413Z" fill="#ECD979"/>
<path d="M17.8672 14.413H16.4949V13.0217H17.8672V14.413Z" fill="#ECD979"/>
<path d="M11.0056 14.413H9.6333V13.0217H11.0056V14.413Z" fill="#ECD979"/>
<path d="M9.63331 14.413H8.26099V13.0217H9.63331V14.413Z" fill="#ECD979"/>
<path d="M8.26099 14.413H6.88867V13.0217H8.26099V14.413Z" fill="#ECD979"/>
<path d="M35.707 13.0217H34.3347V11.6304H35.707V13.0217Z" fill="#ECD979"/>
<path d="M34.3347 13.0217H32.9624V11.6304H34.3347V13.0217Z" fill="#ECD979"/>
<path d="M24.7285 13.0217H23.3562V11.6304H24.7285V13.0217Z" fill="#ECD979"/>
<path d="M23.3562 13.0217H21.9839V11.6304H23.3562V13.0217Z" fill="#ECD979"/>
<path d="M20.6118 13.0217H19.2395V11.6304H20.6118V13.0217Z" fill="#ECD979"/>
<path d="M19.2395 13.0217H17.8672V11.6304H19.2395V13.0217Z" fill="#ECD979"/>
<path d="M9.63331 13.0217H8.26099V11.6304H9.63331V13.0217Z" fill="#ECD979"/>
<path d="M8.26099 13.0217H6.88867V11.6304H8.26099V13.0217Z" fill="#ECD979"/>
<path d="M35.707 11.6304H34.3347V10.2391H35.707V11.6304Z" fill="#ECD979"/>
<path d="M23.3562 11.6304H21.9839V10.2391H23.3562V11.6304Z" fill="#ECD979"/>
<path d="M20.6118 11.6304H19.2395V10.2391H20.6118V11.6304Z" fill="#ECD979"/>
<path d="M8.26099 11.6304H6.88867V10.2391H8.26099V11.6304Z" fill="#ECD979"/>
<path d="M42.5686 10.2391H41.1963V8.8478H42.5686V10.2391Z" fill="#ECD979"/>
<path d="M1.39942 10.2391H0.0270996V8.8478H1.39942V10.2391Z" fill="#ECD979"/>
<path d="M42.5686 8.84781H41.1963V7.4565H42.5686V8.84781Z" fill="#ECD979"/>
<path d="M41.1963 8.84781H39.824V7.4565H41.1963V8.84781Z" fill="#ECD979"/>
<path d="M28.8455 8.84781H27.4731V7.4565H28.8455V8.84781Z" fill="#ECD979"/>
<path d="M27.4731 8.84781H26.1008V7.4565H27.4731V8.84781Z" fill="#ECD979"/>
<path d="M26.1008 8.84781H24.7285V7.4565H26.1008V8.84781Z" fill="#ECD979"/>
<path d="M17.8672 8.84781H16.4949V7.4565H17.8672V8.84781Z" fill="#ECD979"/>
<path d="M16.4949 8.84781H15.1226V7.4565H16.4949V8.84781Z" fill="#ECD979"/>
<path d="M15.1226 8.84781H13.7502V7.4565H15.1226V8.84781Z" fill="#ECD979"/>
<path d="M2.77173 8.84781H1.39941V7.4565H2.77173V8.84781Z" fill="#ECD979"/>
<path d="M1.39942 8.84781H0.0270996V7.4565H1.39942V8.84781Z" fill="#ECD979"/>
<path d="M42.5686 7.45651H41.1963V6.06521H42.5686V7.45651Z" fill="#ECD979"/>
<path d="M41.1963 7.45651H39.824V6.06521H41.1963V7.45651Z" fill="#ECD979"/>
<path d="M39.824 7.45651H38.4517V6.06521H39.824V7.45651Z" fill="#ECD979"/>
<path d="M30.2178 7.45651H28.8455V6.06521H30.2178V7.45651Z" fill="#ECD979"/>
<path d="M28.8455 7.45651H27.4731V6.06521H28.8455V7.45651Z" fill="#ECD979"/>
<path d="M27.4731 7.45651H26.1008V6.06521H27.4731V7.45651Z" fill="#ECD979"/>
<path d="M23.3562 7.45651H21.9839V6.06521H23.3562V7.45651Z" fill="#ECD979"/>
<path d="M20.6118 7.45651H19.2395V6.06521H20.6118V7.45651Z" fill="#ECD979"/>
<path d="M16.4949 7.45651H15.1226V6.06521H16.4949V7.45651Z" fill="#ECD979"/>
<path d="M15.1226 7.45651H13.7502V6.06521H15.1226V7.45651Z" fill="#ECD979"/>
<path d="M13.7502 7.45651H12.3779V6.06521H13.7502V7.45651Z" fill="#ECD979"/>
<path d="M4.14405 7.45651H2.77173V6.06521H4.14405V7.45651Z" fill="#ECD979"/>
<path d="M2.77173 7.45651H1.39941V6.06521H2.77173V7.45651Z" fill="#ECD979"/>
<path d="M1.39942 7.45651H0.0270996V6.06521H1.39942V7.45651Z" fill="#ECD979"/>
<path d="M41.1963 6.06522H39.824V4.67391H41.1963V6.06522Z" fill="#ECD979"/>
<path d="M39.824 6.06522H38.4517V4.67391H39.824V6.06522Z" fill="#ECD979"/>
<path d="M38.4517 6.06522H37.0793V4.67391H38.4517V6.06522Z" fill="#ECD979"/>
<path d="M31.5901 6.06522H30.2178V4.67391H31.5901V6.06522Z" fill="#ECD979"/>
<path d="M30.2178 6.06522H28.8455V4.67391H30.2178V6.06522Z" fill="#ECD979"/>
<path d="M28.8455 6.06522H27.4731V4.67391H28.8455V6.06522Z" fill="#ECD979"/>
<path d="M24.7285 6.06522H23.3562V4.67391H24.7285V6.06522Z" fill="#ECD979"/>
<path d="M23.3562 6.06522H21.9839V4.67391H23.3562V6.06522Z" fill="#ECD979"/>
<path d="M20.6118 6.06522H19.2395V4.67391H20.6118V6.06522Z" fill="#ECD979"/>
<path d="M19.2395 6.06522H17.8672V4.67391H19.2395V6.06522Z" fill="#ECD979"/>
<path d="M15.1226 6.06522H13.7502V4.67391H15.1226V6.06522Z" fill="#ECD979"/>
<path d="M13.7502 6.06522H12.3779V4.67391H13.7502V6.06522Z" fill="#ECD979"/>
<path d="M12.3779 6.06522H11.0056V4.67391H12.3779V6.06522Z" fill="#ECD979"/>
<path d="M5.51636 6.06522H4.14404V4.67391H5.51636V6.06522Z" fill="#ECD979"/>
<path d="M4.14405 6.06522H2.77173V4.67391H4.14405V6.06522Z" fill="#ECD979"/>
<path d="M2.77173 6.06522H1.39941V4.67391H2.77173V6.06522Z" fill="#ECD979"/>
<path d="M39.824 4.67389H38.4517V3.28259H39.824V4.67389Z" fill="#ECD979"/>
<path d="M38.4517 4.67389H37.0793V3.28259H38.4517V4.67389Z" fill="#ECD979"/>
<path d="M37.0794 4.67389H35.707V3.28259H37.0794V4.67389Z" fill="#ECD979"/>
<path d="M26.1008 4.67389H24.7285V3.28259H26.1008V4.67389Z" fill="#ECD979"/>
<path d="M24.7285 4.67389H23.3562V3.28259H24.7285V4.67389Z" fill="#ECD979"/>
<path d="M23.3562 4.67389H21.9839V3.28259H23.3562V4.67389Z" fill="#ECD979"/>
<path d="M20.6118 4.67389H19.2395V3.28259H20.6118V4.67389Z" fill="#ECD979"/>
<path d="M19.2395 4.67389H17.8672V3.28259H19.2395V4.67389Z" fill="#ECD979"/>
<path d="M17.8672 4.67389H16.4949V3.28259H17.8672V4.67389Z" fill="#ECD979"/>
<path d="M6.88868 4.67389H5.51636V3.28259H6.88868V4.67389Z" fill="#ECD979"/>
<path d="M5.51636 4.67389H4.14404V3.28259H5.51636V4.67389Z" fill="#ECD979"/>
<path d="M4.14405 4.67389H2.77173V3.28259H4.14405V4.67389Z" fill="#ECD979"/>
<path d="M43.9409 3.28259H42.5686V1.89129H43.9409V3.28259Z" fill="#ECD979"/>
<path d="M38.4517 3.28259H37.0793V1.89129H38.4517V3.28259Z" fill="#ECD979"/>
<path d="M37.0794 3.28259H35.707V1.89129H37.0794V3.28259Z" fill="#ECD979"/>
<path d="M35.707 3.28259H34.3347V1.89129H35.707V3.28259Z" fill="#ECD979"/>
<path d="M26.1008 3.28259H24.7285V1.89129H26.1008V3.28259Z" fill="#ECD979"/>
<path d="M24.7285 3.28259H23.3562V1.89129H24.7285V3.28259Z" fill="#ECD979"/>
<path d="M19.2395 3.28259H17.8672V1.89129H19.2395V3.28259Z" fill="#ECD979"/>
<path d="M17.8672 3.28259H16.4949V1.89129H17.8672V3.28259Z" fill="#ECD979"/>
<path d="M8.26099 3.28259H6.88867V1.89129H8.26099V3.28259Z" fill="#ECD979"/>
<path d="M6.88868 3.28259H5.51636V1.89129H6.88868V3.28259Z" fill="#ECD979"/>
<path d="M5.51636 3.28259H4.14404V1.89129H5.51636V3.28259Z" fill="#ECD979"/>
<path d="M43.9409 1.8913H42.5686V0.499992H43.9409V1.8913Z" fill="#ECD979"/>
<path d="M42.5686 1.8913H41.1963V0.499992H42.5686V1.8913Z" fill="#ECD979"/>
<path d="M37.0794 1.8913H35.707V0.499992H37.0794V1.8913Z" fill="#ECD979"/>
<path d="M35.707 1.8913H34.3347V0.499992H35.707V1.8913Z" fill="#ECD979"/>
<path d="M34.3347 1.8913H32.9624V0.499992H34.3347V1.8913Z" fill="#ECD979"/>
<path d="M26.1008 1.8913H24.7285V0.499992H26.1008V1.8913Z" fill="#ECD979"/>
<path d="M17.8672 1.8913H16.4949V0.499992H17.8672V1.8913Z" fill="#ECD979"/>
<path d="M9.63331 1.8913H8.26099V0.499992H9.63331V1.8913Z" fill="#ECD979"/>
<path d="M8.26099 1.8913H6.88867V0.499992H8.26099V1.8913Z" fill="#ECD979"/>
<path d="M6.88868 1.8913H5.51636V0.499992H6.88868V1.8913Z" fill="#ECD979"/>
<path d="M1.39942 1.8913H0.0270996V0.499992H1.39942V1.8913Z" fill="#ECD979"/>
</g>
<defs>
<clipPath id="clip0_31_554">
<rect width="44" height="39" fill="white" transform="translate(0 0.5)"/>
</clipPath>
</defs>
</svg>